<svg width="325" height="35" viewBox="0 0 325 35" fill="none" xmlns="http://www.w3.org/2000/svg">
<path d="M0.172375 35V0.487998H27.5804C28.8924 0.487998 30.0764 0.807998 31.1324 1.448C32.2204 2.088 33.0844 2.952 33.7244 4.04C34.3964 5.128 34.7324 6.312 34.7324 7.592V16.52C34.7324 17.8 34.3964 18.984 33.7244 20.072C33.0844 21.16 32.2204 22.024 31.1324 22.664C30.0764 23.304 28.8924 23.624 27.5804 23.624L7.61238 23.672V35H0.172375ZM7.61238 16.136H27.1964V7.928H7.61238V16.136ZM38.2371 35V0.439999H70.1571V7.928H45.7731V13.976H65.4051V21.464H45.7731V27.512H70.1571V35H38.2371ZM101.723 35L91.6911 23.048H101.435L109.403 32.456V35H101.723ZM74.8911 35V0.487998H102.299C103.611 0.487998 104.795 0.807998 105.851 1.448C106.939 2.088 107.803 2.952 108.443 4.04C109.115 5.128 109.451 6.312 109.451 7.592V16.52C109.451 17.8 109.115 18.984 108.443 20.072C107.803 21.16 106.939 22.024 105.851 22.664C104.795 23.304 103.611 23.624 102.299 23.624L82.3311 23.672V35H74.8911ZM82.3311 16.136H101.915V7.928H82.3311V16.136ZM114.501 35V0.439999H122.181L141.525 23.48V0.439999H149.061V35H141.381L121.941 11.864V35H114.501ZM176.915 35C175.635 35 174.451 34.68 173.363 34.04C172.275 33.4 171.411 32.536 170.771 31.448C170.131 30.36 169.811 29.176 169.811 27.896V24.68H177.251V27.512H196.835V21.464H176.915C175.635 21.464 174.451 21.144 173.363 20.504C172.275 19.864 171.411 19.016 170.771 17.96C170.131 16.872 169.811 15.672 169.811 14.36V7.544C169.811 6.232 170.131 5.048 170.771 3.992C171.411 2.904 172.275 2.04 173.363 1.4C174.451 0.759998 175.635 0.439999 176.915 0.439999H197.267C198.547 0.439999 199.715 0.759998 200.771 1.4C201.859 2.04 202.723 2.904 203.363 3.992C204.035 5.048 204.371 6.232 204.371 7.544V10.76H196.835V7.928H177.251V13.976H197.267C198.547 13.976 199.715 14.296 200.771 14.936C201.859 15.576 202.723 16.44 203.363 17.528C204.035 18.584 204.371 19.768 204.371 21.08V27.896C204.371 29.176 204.035 30.36 203.363 31.448C202.723 32.536 201.859 33.4 200.771 34.04C199.715 34.68 198.547 35 197.267 35H176.915ZM209.705 35V0.439999H217.145V13.976H237.545V0.439999H244.985V35H237.545V21.464H217.145V35H209.705ZM257.493 35C256.213 35 255.029 34.68 253.941 34.04C252.853 33.4 251.989 32.536 251.349 31.448C250.709 30.36 250.389 29.176 250.389 27.896V7.544C250.389 6.232 250.709 5.048 251.349 3.992C251.989 2.904 252.853 2.04 253.941 1.4C255.029 0.759998 256.213 0.439999 257.493 0.439999H277.845C279.125 0.439999 280.293 0.759998 281.349 1.4C282.437 2.04 283.301 2.904 283.941 3.992C284.613 5.048 284.949 6.232 284.949 7.544V27.896C284.949 29.176 284.613 30.36 283.941 31.448C283.301 32.536 282.437 33.4 281.349 34.04C280.293 34.68 279.125 35 277.845 35H257.493ZM257.829 27.512H277.413V7.928H257.829V27.512ZM290.235 35V0.487998H317.643C318.955 0.487998 320.139 0.807998 321.195 1.448C322.283 2.088 323.147 2.952 323.787 4.04C324.459 5.128 324.795 6.312 324.795 7.592V16.52C324.795 17.8 324.459 18.984 323.787 20.072C323.147 21.16 322.283 22.024 321.195 22.664C320.139 23.304 318.955 23.624 317.643 23.624L297.675 23.672V35H290.235ZM297.675 16.136H317.259V7.928H297.675V16.136Z" fill="#2F3035"/>
</svg>
