<svg width="1664" height="1707" viewBox="0 0 1664 1707" fill="none" xmlns="http://www.w3.org/2000/svg">
<g clip-path="url(#clip0_301_2)">
<path d="M1465.33 0.800025C1445.6 3.20003 1418.93 11.2 1402.53 19.3334C1379.73 30.9334 1354.13 52.1334 1340 71.3334C1336.67 75.7334 1172.67 285.867 975.6 538.4C743.6 835.333 616.533 997.067 615.6 996.4C608.267 992 328.533 789.2 317.733 780.4C285.2 754 253.867 737.6 219.333 728.533C201.333 723.867 169.467 722.533 150.133 725.867C75.7333 738.533 18 795.333 3.06668 870.4C1.46668 878.533 0.800015 888.533 0.800015 904C0.666682 927.867 3.20002 943.6 10.2667 963.2C15.0667 976.667 26.9333 999.2 34.4 1009.33C38 1014.13 96 1080.67 163.333 1157.33C412.533 1440.67 507.733 1549.33 575.2 1626.93L644.4 1706.53L648 1701.6C668.4 1673.33 1633.33 280.667 1638.8 271.6C1681.07 201.6 1668.53 108.4 1609.2 51.2C1575.73 19.0667 1535.07 1.86669 1489.33 0.800025C1478.67 0.400025 1467.87 0.533358 1465.33 0.800025Z" fill="#D452FB"/>
</g>
<defs>
<clipPath id="clip0_301_2">
<rect width="1664" height="1706.67" fill="white"/>
</clipPath>
</defs>
</svg>
